<?xml version="1.0" encoding="UTF-8"?>
<!--Generator: Apple Native CoreSVG 232.5-->
<!DOCTYPE svg
PUBLIC "-//W3C//DTD SVG 1.1//EN"
       "http://www.w3.org/Graphics/SVG/1.1/DTD/svg11.dtd">
<svg version="1.1" xmlns="http://www.w3.org/2000/svg" xmlns:xlink="http://www.w3.org/1999/xlink" width="7.64648" height="26.2061">
 <g>
  <rect height="26.2061" opacity="0" width="7.64648" x="0" y="0"/>
  <path d="M2.76855 25.1807L6.69434 15.1904C6.95801 14.5166 7.28027 13.6963 7.28027 13.0518C7.28027 12.4072 6.95801 11.5869 6.69434 10.9131L2.76855 0.922852C2.54883 0.351562 2.05078 0 1.50879 0C0.644531 0 0 0.629883 0 1.47949C0 1.9043 0.249023 2.49023 0.380859 2.87109L4.79004 14.0918L4.79004 12.0117L0.380859 23.2324C0.249023 23.6133 0 24.1846 0 24.624C0 25.4883 0.644531 26.1182 1.50879 26.1182C2.05078 26.1182 2.54883 25.752 2.76855 25.1807Z" fill="#15a09b" fill-opacity="0.85"/>
 </g>
</svg>
