<?xml version="1.0" encoding="UTF-8"?>
<!--Generator: Apple Native CoreSVG 232.5-->
<!DOCTYPE svg
PUBLIC "-//W3C//DTD SVG 1.1//EN"
       "http://www.w3.org/Graphics/SVG/1.1/DTD/svg11.dtd">
<svg version="1.1" xmlns="http://www.w3.org/2000/svg" xmlns:xlink="http://www.w3.org/1999/xlink" width="7.64648" height="26.2061">
 <g>
  <rect height="26.2061" opacity="0" width="7.64648" x="0" y="0"/>
  <path d="M4.51172 25.1807C4.73145 25.752 5.22949 26.1182 5.75684 26.1182C6.62109 26.1182 7.28027 25.4883 7.28027 24.624C7.28027 24.1846 7.03125 23.6133 6.88477 23.2324L2.47559 12.0117L2.47559 14.0918L6.88477 2.87109C7.03125 2.49023 7.28027 1.9043 7.28027 1.47949C7.28027 0.629883 6.62109 0 5.75684 0C5.22949 0 4.73145 0.351562 4.51172 0.922852L0.585938 10.9131C0.322266 11.5869 0 12.4072 0 13.0518C0 13.6963 0.322266 14.5166 0.585938 15.1904Z" fill="#15a09b" fill-opacity="0.85"/>
 </g>
</svg>
